<?xml version="1.0" encoding="utf-8"?>
<!-- Generated by IcoMoon.io -->
<!DOCTYPE svg PUBLIC "-//W3C//DTD SVG 1.1//EN" "http://www.w3.org/Graphics/SVG/1.1/DTD/svg11.dtd">
<svg version="1.1" xmlns="http://www.w3.org/2000/svg" xmlns:xlink="http://www.w3.org/1999/xlink" width="32" height="32" viewBox="0 0 32 32">
<g>
</g>
	<path d="M16.119 3.77c-1.026 0-1.861 0.834-1.861 1.861 0 1.026 0.834 1.861 1.861 1.861 1.027 0 1.861-0.834 1.861-1.861 0-1.026-0.835-1.861-1.861-1.861zM30.777 22.337l-2.414-4.797-4.796 2.416c-0.934 0.47-1.311 1.613-0.84 2.547 0.338 0.671 1.038 1.084 1.788 1.041-1.241 2.309-3.651 3.997-6.501 4.513v-12.835h1.618c1.046 0 1.896-0.851 1.896-1.896s-0.851-1.897-1.896-1.897h-1.618v-0.476c2.233-0.796 3.758-2.927 3.758-5.321 0-3.118-2.536-5.654-5.653-5.654-3.118 0-5.654 2.536-5.654 5.654 0 2.394 1.525 4.524 3.757 5.321v0.476h-1.508c-1.046 0-1.896 0.851-1.896 1.897 0 1.046 0.851 1.896 1.896 1.896h1.508v12.812c-2.788-0.539-5.16-2.218-6.385-4.488 0.688-0.029 1.302-0.422 1.614-1.042 0.228-0.453 0.266-0.966 0.107-1.447-0.159-0.481-0.495-0.872-0.948-1.099l-4.796-2.416-2.413 4.797c-0.228 0.452-0.266 0.966-0.106 1.448 0.159 0.48 0.495 0.87 0.948 1.099 0.634 0.318 1.413 0.241 1.958-0.151 2.038 4.396 6.731 7.288 11.975 7.288 5.185 0 9.874-2.866 11.934-7.211 0.538 0.329 1.262 0.362 1.828 0.074 0.932-0.471 1.309-1.613 0.839-2.547zM16.119 8.595c-1.634 0-2.964-1.329-2.964-2.964 0-1.634 1.33-2.964 2.964-2.964 1.634 0 2.964 1.33 2.964 2.964 0 1.635-1.33 2.964-2.964 2.964z" fill="#000000" />
</svg>
