<?xml version="1.0" encoding="utf-8"?>
<!-- Generated by IcoMoon.io -->
<!DOCTYPE svg PUBLIC "-//W3C//DTD SVG 1.1//EN" "http://www.w3.org/Graphics/SVG/1.1/DTD/svg11.dtd">
<svg version="1.1" xmlns="http://www.w3.org/2000/svg" xmlns:xlink="http://www.w3.org/1999/xlink" width="32" height="32" viewBox="0 0 32 32">
<g>
</g>
	<path d="M30.096 16.023c-0.874 0-1.584 0.709-1.584 1.584v6.088h-25.023v-10.206c0-0.875-0.709-1.584-1.584-1.584s-1.584 0.709-1.584 1.584v18.511h3.168v-4.538h25.024v4.538h3.168v-14.393c0-0.875-0.709-1.584-1.584-1.584zM13.386 23.22h14.518v-3.379c0-1.916-1.568-3.484-3.484-3.484h-11.034v6.863zM13.016 23.167h-7.523c-0.787 0-1.425-0.638-1.425-1.425 0-0.787 0.638-1.425 1.425-1.425h4.672v-2.956c0-0.787 0.638-1.425 1.425-1.425s1.425 0.638 1.425 1.425v5.807zM9.796 17.096c0 1.574-1.276 2.851-2.851 2.851s-2.851-1.276-2.851-2.851c0-1.574 1.276-2.851 2.851-2.851 1.574 0 2.851 1.276 2.851 2.851z" fill="#000000" />
</svg>
