<?xml version="1.0" encoding="utf-8"?>
<!-- Generated by IcoMoon.io -->
<!DOCTYPE svg PUBLIC "-//W3C//DTD SVG 1.1//EN" "http://www.w3.org/Graphics/SVG/1.1/DTD/svg11.dtd">
<svg version="1.1" xmlns="http://www.w3.org/2000/svg" xmlns:xlink="http://www.w3.org/1999/xlink" width="32" height="32" viewBox="0 0 32 32">
<g>
</g>
	<path d="M8.615 6.154c-0.678 0-1.231-0.553-1.231-1.231v-3.692c-0-0.679 0.553-1.231 1.231-1.231v0c0.678 0 1.231 0.552 1.231 1.231v3.692c-0 0.678-0.553 1.231-1.231 1.231v0zM28.308 2.462h-2.461v2.462c0 1.357-1.103 2.462-2.462 2.462-1.358 0-2.462-1.105-2.462-2.462v-2.462h-9.846v2.462c0 1.357-1.103 2.462-2.462 2.462s-2.462-1.105-2.462-2.462v-2.462h-2.462c-2.038 0-3.692 1.653-3.692 3.692v22.154c0 2.038 1.654 3.692 3.692 3.692h24.615c2.038 0 3.692-1.654 3.692-3.692v-22.154c0-2.040-1.654-3.692-3.692-3.692zM29.538 28.308c0 0.678-0.553 1.231-1.231 1.231h-24.615c-0.678 0-1.231-0.553-1.231-1.231v-17.231h27.077v17.231zM23.384 6.154c-0.678 0-1.231-0.553-1.231-1.231v-3.692c0-0.679 0.553-1.231 1.231-1.231v0c0.678 0 1.231 0.552 1.231 1.231v3.692c0 0.678-0.553 1.231-1.231 1.231v0zM26.462 27.077h-20.923c-0.34 0-0.615-0.275-0.615-0.616v-12.308c0-0.34 0.275-0.615 0.615-0.615h20.923c0.34 0 0.616 0.275 0.616 0.615v12.308c0 0.34-0.275 0.616-0.616 0.616zM6.154 25.846h19.692v-11.077h-19.692v11.077zM21.538 27.077c-0.34 0-0.616-0.275-0.616-0.616v-12.308c0-0.34 0.275-0.615 0.616-0.615 0.34 0 0.616 0.275 0.616 0.615v12.308c-0 0.34-0.275 0.616-0.616 0.616zM16.616 27.077c-0.34 0-0.616-0.275-0.616-0.616v-12.308c0-0.34 0.275-0.615 0.616-0.615 0.34 0 0.615 0.275 0.615 0.615v12.308c-0 0.34-0.275 0.616-0.615 0.616zM10.462 27.077c-0.34 0-0.615-0.275-0.615-0.616v-12.308c0-0.34 0.275-0.615 0.615-0.615 0.34 0 0.615 0.275 0.615 0.615v12.308c-0 0.34-0.275 0.616-0.615 0.616zM26.462 23.384h-20.923c-0.34 0-0.615-0.275-0.615-0.616 0-0.34 0.275-0.615 0.615-0.615h20.923c0.34 0 0.616 0.275 0.616 0.615 0 0.34-0.275 0.616-0.616 0.616zM26.462 18.462h-20.923c-0.34 0-0.615-0.275-0.615-0.616 0-0.34 0.275-0.615 0.615-0.615h20.923c0.34 0 0.616 0.275 0.616 0.615 0 0.34-0.275 0.616-0.616 0.616zM16.616 16h-6.154c-1.019 0-1.846 0.827-1.846 1.846v4.923c0 1.019 0.827 1.846 1.846 1.846h6.154c1.019 0 1.846-0.827 1.846-1.846v-4.923c-0-1.019-0.827-1.846-1.846-1.846zM16 22.154h-4.923v-3.692h4.923v3.692z" fill="#000000" />
</svg>
