<?xml version="1.0" encoding="utf-8"?>
<!-- Generated by IcoMoon.io -->
<!DOCTYPE svg PUBLIC "-//W3C//DTD SVG 1.1//EN" "http://www.w3.org/Graphics/SVG/1.1/DTD/svg11.dtd">
<svg version="1.1" xmlns="http://www.w3.org/2000/svg" xmlns:xlink="http://www.w3.org/1999/xlink" width="32" height="32" viewBox="0 0 32 32">
<g>
</g>
	<path d="M11.093 31.929c-0.501 0-0.952-0.305-1.139-0.771l-2.145-5.362h-2.849c-2.705 0-4.907-2.201-4.907-4.907v-12.267c0-2.706 2.201-4.907 4.907-4.907h22.080c2.706 0 4.907 2.201 4.907 4.907v12.267c0 2.706-2.201 4.907-4.907 4.907h-12.662l-2.145 5.362c-0.187 0.466-0.638 0.771-1.139 0.771zM4.96 6.169c-1.353 0-2.453 1.101-2.453 2.453v12.267c0 1.352 1.1 2.453 2.453 2.453h3.68c0.501 0 0.952 0.305 1.139 0.771l1.314 3.286 1.314-3.286c0.187-0.466 0.638-0.771 1.139-0.771h13.493c1.353 0 2.453-1.101 2.453-2.453v-12.267c0-1.352-1.1-2.453-2.453-2.453h-22.080zM23.36 13.529h-14.72c-0.677 0-1.227-0.549-1.227-1.227 0-0.678 0.549-1.227 1.227-1.227h14.72c0.677 0 1.227 0.549 1.227 1.227s-0.549 1.227-1.227 1.227zM20.907 18.436h-12.267c-0.677 0-1.227-0.549-1.227-1.227s0.549-1.227 1.227-1.227h12.267c0.677 0 1.227 0.549 1.227 1.227s-0.549 1.227-1.227 1.227z" fill="#000000" />
</svg>
