<?xml version="1.0" encoding="iso-8859-1"?>
<!-- Generator: Adobe Illustrator 16.0.0, SVG Export Plug-In . SVG Version: 6.00 Build 0)  -->
<!DOCTYPE svg PUBLIC "-//W3C//DTD SVG 1.1//EN" "http://www.w3.org/Graphics/SVG/1.1/DTD/svg11.dtd">
<svg version="1.1" id="Layer_1" xmlns="http://www.w3.org/2000/svg" xmlns:xlink="http://www.w3.org/1999/xlink" x="0px" y="0px"
	 width="24px" height="24px" viewBox="0 0 24 24" style="enable-background:new 0 0 24 24;" xml:space="preserve">
<path d="M21.799,0H2.201C0.985,0,0,0.985,0,2.201v19.598C0,23.015,0.985,24,2.201,24H12v-9.998H9V11h3V8.037
	C12,5.504,13.021,4,16.006,4H19v3h-1.293C16.764,7,16,7.764,16,8.707V11h4l-0.536,3.002H16V24h5.799C23.015,24,24,23.015,24,21.799
	V2.201C24,0.985,23.015,0,21.799,0z"/>
</svg>
