<?xml version="1.0" encoding="utf-8"?>
<!-- Generated by IcoMoon.io -->
<!DOCTYPE svg PUBLIC "-//W3C//DTD SVG 1.1//EN" "http://www.w3.org/Graphics/SVG/1.1/DTD/svg11.dtd">
<svg version="1.1" xmlns="http://www.w3.org/2000/svg" xmlns:xlink="http://www.w3.org/1999/xlink" width="32" height="32" viewBox="0 0 32 32">
<g>
</g>
	<path d="M15.894 9.35c0-2.15-0.302-8.977-0.302-8.977s-0.627-0.124-1.912-0.207v7.21c0 0.406-0.346 0.729-0.773 0.727-0.428 0-0.773-0.322-0.773-0.728v-7.276c-0.315-0.008-0.65-0.010-1.010-0.012-0.399 0-0.764 0.007-1.106 0.013v7.212c-0.002 0.404-0.345 0.727-0.773 0.726-0.427 0-0.773-0.322-0.773-0.726v-7.141c-1.257 0.084-1.886 0.2-1.886 0.2s-0.326 5.709-0.328 8.98c0 3.649 3.553 3.673 3.553 5.111-0.002 1.434-1.084 7.386-1.084 10.748 0 6.157 1.284 6.647 2.349 6.648 1.065 0.002 2.402-0.491 2.399-6.648 0.002-3.359-1.135-9.31-1.135-10.745-0.002-1.438 3.55-1.412 3.553-5.113zM24.523 10.359c-0.002-2.35 0.554-10.112-5.913-10.112l-0.005 7.883c0 3.542-0.298 5.256-0.297 6.825 0 1.571-0.994 6.101-0.994 9.772 0.001 6.734 1.067 7.126 2.382 7.129 1.321 0 2.368-0.396 2.368-7.13-0.002-3.669-1.198-5.061-1.198-6.63-0.002-2.665 3.652-3.692 3.657-7.737z" fill="#000000" />
</svg>
