<?xml version="1.0" encoding="utf-8"?>
<!-- Generated by IcoMoon.io -->
<!DOCTYPE svg PUBLIC "-//W3C//DTD SVG 1.1//EN" "http://www.w3.org/Graphics/SVG/1.1/DTD/svg11.dtd">
<svg version="1.1" xmlns="http://www.w3.org/2000/svg" xmlns:xlink="http://www.w3.org/1999/xlink" width="32" height="32" viewBox="0 0 32 32">
<g>
</g>
	<path d="M23.376 32h-23.385v-1.231c0-0.678 0.553-1.231 1.231-1.231h20.923c0.678 0 1.231 0.553 1.231 1.231v1.231zM17.222 0h-11.077c-2.040 0-3.692 1.653-3.692 3.692v27.077h18.461v-27.077c-0-2.040-1.653-3.692-3.692-3.692zM18.452 11.077c0 0.679-0.552 1.231-1.231 1.231h-11.077c-0.679 0-1.231-0.552-1.231-1.231v-7.385c0-0.679 0.552-1.231 1.231-1.231h11.077c0.679 0 1.231 0.552 1.231 1.231v7.385zM27.683 29.539c-4.308 0-4.308-5.819-4.308-8.616 0-1.43-0.215-1.946-0.397-2.126-0.34-0.34-1.534-0.35-2.891-0.336h-0.405c-0.68 0-1.231-0.55-1.231-1.231 0-0.68 0.55-1.231 1.231-1.231l0.4-0.001c2.070 0.002 3.571-0.007 4.635 1.055 0.785 0.783 1.119 1.939 1.119 3.869 0 6.154 1.293 6.154 1.846 6.154s1.846 0 1.846-6.154v-7.308c0-0.221 0.007-0.416 0.013-0.597 0.042-1.16 0.049-1.369-7.037-8.456-0.481-0.481-0.481-1.26 0-1.74 0.481-0.481 1.26-0.481 1.74 0 7.405 7.406 7.84 7.982 7.757 10.286-0.006 0.154-0.012 0.32-0.012 0.508v7.308c0 2.797 0 8.615-4.308 8.615zM30.811 16.849c0 0.68-0.552 0.583-1.231-0.214l-2.461-2.422c-0.679-0.798-1.231-1.365-1.231-2.677v-4.203c0-0.679 0.552-0.583 1.231 0.215l2.461 2.122c0.679 0.797 1.231 1.843 1.231 2.521v4.657z" fill="#000000" />
</svg>
