<?xml version="1.0" encoding="iso-8859-1"?>
<!-- Generator: Adobe Illustrator 16.0.0, SVG Export Plug-In . SVG Version: 6.00 Build 0)  -->
<!DOCTYPE svg PUBLIC "-//W3C//DTD SVG 1.1//EN" "http://www.w3.org/Graphics/SVG/1.1/DTD/svg11.dtd">
<svg version="1.1" id="Layer_1" xmlns="http://www.w3.org/2000/svg" xmlns:xlink="http://www.w3.org/1999/xlink" x="0px" y="0px"
	 width="24px" height="24px" viewBox="0 0 24 24" style="enable-background:new 0 0 24 24;" xml:space="preserve">
<path d="M7.89,4.638c-0.558,0-1.158,0.274-1.505,0.704C6.021,5.781,5.91,6.354,5.91,6.902c0,1.42,0.844,3.773,2.688,3.773
	c0.541,0,1.117-0.258,1.464-0.596c0.49-0.489,0.533-1.165,0.533-1.542C10.595,7.009,9.672,4.638,7.89,4.638z"/>
<path d="M21.799,0H2.201C0.985,0,0,0.985,0,2.201v19.598C0,23.015,0.985,24,2.201,24h19.598C23.015,24,24,23.015,24,21.799V2.201
	C24,0.985,23.015,0,21.799,0z M12.488,7.524c0,1.566-0.903,2.346-1.806,3.041c-0.278,0.276-0.604,0.577-0.604,1.04
	c0,0.465,0.326,0.721,0.562,0.908l0.772,0.595c0.944,0.784,1.801,1.507,1.801,2.964c0,1.991-1.955,4.002-5.648,4.002
	c-3.114,0-4.615-1.459-4.615-3.026c0-0.761,0.387-1.843,1.657-2.585c1.328-0.803,3.132-0.91,4.1-0.977
	c-0.302-0.378-0.645-0.779-0.645-1.438c0-0.354,0.107-0.568,0.217-0.825c-0.238,0.02-0.475,0.042-0.689,0.042
	c-2.275,0-3.568-1.676-3.568-3.328c0-0.975,0.453-2.06,1.381-2.837c1.219-0.999,2.683-1.175,3.841-1.175h4.424l-1.376,0.703H10.96
	C11.453,5.1,12.488,5.914,12.488,7.524z M22,13h-3v3h-2v-3h-3v-2h3V8h2v3h3V13z"/>
<path d="M8.941,14.084c-0.193,0-1.352,0.04-2.254,0.338c-0.475,0.172-1.846,0.678-1.846,2.182c0,1.502,1.48,2.584,3.778,2.584
	c2.062,0,3.155-0.979,3.155-2.29c0-1.08-0.707-1.65-2.337-2.793C9.266,14.084,9.158,14.084,8.941,14.084z"/>
</svg>
