<?xml version="1.0" encoding="utf-8"?>
<!-- Generated by IcoMoon.io -->
<!DOCTYPE svg PUBLIC "-//W3C//DTD SVG 1.1//EN" "http://www.w3.org/Graphics/SVG/1.1/DTD/svg11.dtd">
<svg version="1.1" xmlns="http://www.w3.org/2000/svg" xmlns:xlink="http://www.w3.org/1999/xlink" width="32" height="32" viewBox="0 0 32 32">
<g>
</g>
	<path d="M8.624 31.9c-0.252 0-0.504-0.096-0.696-0.288l-7.542-7.541c-0.185-0.184-0.288-0.435-0.288-0.696s0.103-0.512 0.288-0.696l22.291-22.292c0.368-0.37 1.024-0.37 1.392-0.001l7.543 7.543c0.185 0.185 0.288 0.435 0.288 0.697s-0.103 0.511-0.288 0.696l-22.291 22.29c-0.192 0.192-0.444 0.288-0.696 0.288zM2.475 23.375l6.15 6.149 20.898-20.898-6.15-6.15-20.898 20.9zM22.202 8.389c-0.252 0-0.504-0.096-0.696-0.288l-2-2c-0.385-0.385-0.385-1.008 0-1.393 0.384-0.383 1.007-0.383 1.392 0l2 2c0.385 0.385 0.385 1.008 0 1.393-0.192 0.192-0.444 0.288-0.696 0.288zM21.309 12.719c-0.252 0-0.504-0.096-0.696-0.288l-3.718-3.719c-0.384-0.385-0.384-1.008 0.001-1.392 0.384-0.385 1.007-0.384 1.392 0.001l3.718 3.719c0.384 0.385 0.384 1.008 0 1.392-0.192 0.192-0.444 0.288-0.696 0.288zM16.98 13.611c-0.252 0-0.504-0.096-0.697-0.288l-2-2c-0.384-0.385-0.384-1.008 0-1.393 0.385-0.383 1.008-0.383 1.393 0l2 2c0.384 0.385 0.384 1.008 0 1.393-0.192 0.192-0.445 0.288-0.697 0.288zM14.368 16.222c-0.252 0-0.504-0.096-0.697-0.288l-2-2c-0.384-0.385-0.384-1.008 0-1.393 0.385-0.383 1.008-0.383 1.393 0l2 2c0.384 0.385 0.384 1.008 0 1.393-0.192 0.192-0.445 0.288-0.697 0.288zM13.476 20.552c-0.252 0-0.504-0.096-0.697-0.288l-3.718-3.719c-0.384-0.384-0.384-1.008 0.001-1.392 0.383-0.383 1.008-0.384 1.392 0.001l3.718 3.719c0.384 0.385 0.384 1.007-0.001 1.392-0.192 0.192-0.444 0.288-0.696 0.288zM9.147 21.444c-0.252 0-0.504-0.096-0.697-0.288l-2-2c-0.384-0.384-0.384-1.007 0-1.392 0.385-0.384 1.008-0.384 1.393 0l2 2c0.384 0.384 0.384 1.007 0 1.392-0.192 0.192-0.445 0.288-0.697 0.288zM6.537 24.054c-0.252 0-0.504-0.096-0.697-0.288l-2-2c-0.384-0.384-0.384-1.007 0-1.392 0.385-0.384 1.008-0.384 1.393 0l2 2c0.384 0.385 0.384 1.007 0 1.392-0.192 0.192-0.445 0.288-0.697 0.288z" fill="#000000" />
</svg>
