<?xml version="1.0" encoding="utf-8"?>
<!-- Generated by IcoMoon.io -->
<!DOCTYPE svg PUBLIC "-//W3C//DTD SVG 1.1//EN" "http://www.w3.org/Graphics/SVG/1.1/DTD/svg11.dtd">
<svg version="1.1" xmlns="http://www.w3.org/2000/svg" xmlns:xlink="http://www.w3.org/1999/xlink" width="66" height="32" viewBox="0 0 66 32">
<g>
</g>
	<path d="M30.48 26.322c-0.070 0.589 0.070 1.092 0.433 1.512 0.36 0.409 0.839 0.616 1.442 0.616h3.662c-0.543 0.839-1.211 1.512-2.004 2.018-0.804 0.519-1.638 0.777-2.507 0.777-1.324 0-2.376-0.554-3.158-1.66-0.777-1.092-1.063-2.416-0.845-3.968l0.993-6.963c0.215-1.418 0.7-2.645 1.439-3.678 0.726-1.025 1.517-1.598 2.384-1.716l-0.955 6.75h5.34c-0.471 0.826-1.146 1.496-2.023 1.999-0.888 0.517-1.832 0.775-2.83 0.775h-0.885l-0.484 3.538zM65.618 19.849c0.005 0.027 0.011 0.054 0.011 0.086s-0.005 0.059-0.011 0.086c-0.016 0.027-0.032 0.048-0.051 0.067-0.019 0.019-0.043 0.038-0.065 0.048-0.027 0.016-0.057 0.024-0.081 0.032 0.027 0.013 0.051 0.032 0.070 0.056 0.016 0.021 0.032 0.056 0.038 0.105l0.022 0.108c0 0.024 0 0.035 0 0.040 0 0.016-0.005 0.024-0.011 0.032-0.005 0-0.016 0-0.032 0.008-0.011 0-0.032 0-0.057 0-0.048 0-0.070-0.003-0.081-0.008-0.011-0.008-0.022-0.021-0.027-0.040l-0.011-0.108c-0.005-0.048-0.022-0.081-0.040-0.108-0.013-0.019-0.040-0.030-0.075-0.030h-0.059l-0.048 0.253c-0.008 0.016-0.016 0.024-0.030 0.032-0.016 0.005-0.038 0.008-0.067 0.008-0.040 0-0.067-0.003-0.078-0.008-0.016-0.008-0.016-0.016-0.011-0.032l0.126-0.662c0.005-0.027 0.022-0.046 0.043-0.056 0.011-0.021 0.035-0.030 0.065-0.030h0.196c0.043 0 0.086 0.005 0.126 0.019 0.032 0.005 0.059 0.021 0.086 0.040 0.022 0.013 0.038 0.030 0.051 0.059zM65.433 19.954c0-0.016-0.003-0.024-0.011-0.030 0-0.008-0.005-0.019-0.019-0.030-0.005 0-0.016-0.005-0.032-0.011s-0.040-0.011-0.065-0.011h-0.078l-0.038 0.207h0.065c0.040 0 0.067-0.003 0.089-0.011 0.019-0.005 0.038-0.011 0.048-0.021 0.013-0.011 0.024-0.027 0.030-0.048 0.008-0.008 0.011-0.024 0.011-0.046zM15.632 12.703l-2.612 18.542c-0.877-0.094-1.534-0.508-1.967-1.243-0.457-0.783-0.605-1.872-0.449-3.263h-5.916c-0.433 1.501-0.92 2.596-1.461 3.282-0.651 0.815-1.474 1.224-2.472 1.224 0.277-1.969 0.659-3.804 1.154-5.499l0.038-0.127c1.047-3.559 2.959-6.516 5.736-8.875 2.343-1.983 4.996-3.331 7.95-4.041zM12.118 17.139c-1.48 0.697-2.752 1.582-3.826 2.65-1.178 1.181-2.085 2.572-2.723 4.17h5.591l0.958-6.82zM21.534 19.902c-1.636 0-2.989 0.522-4.060 1.568-1.033 1.022-1.684 2.402-1.948 4.148l-0.778 5.626c0.877 0 1.66-0.42 2.346-1.264 0.732-0.874 1.208-2.069 1.426-3.57l0.161-1.173c0.118-0.724 0.395-1.302 0.831-1.749 0.444-0.457 0.966-0.694 1.568-0.705h0.089c0.568 0.011 1.025 0.264 1.372 0.759 0.336 0.479 0.473 1.044 0.414 1.695l-0.164 1.173c-0.204 1.383-0.075 2.518 0.379 3.411 0.436 0.839 1.1 1.313 2.002 1.423l0.794-5.628c0.215-1.55-0.105-2.892-0.971-4.025-0.866-1.127-2.020-1.69-3.462-1.69zM52.793 25.619c-0.231 1.587-0.936 2.941-2.112 4.060-1.178 1.117-2.497 1.676-3.952 1.676s-2.623-0.56-3.497-1.676c-0.866-1.119-1.184-2.472-0.958-4.060 0.221-1.577 0.923-2.922 2.112-4.041 1.178-1.119 2.497-1.676 3.952-1.676s2.615 0.557 3.481 1.676c0.864 1.119 1.189 2.464 0.974 4.041zM49.474 23.618c-0.374-0.552-0.888-0.831-1.55-0.831-0.651 0-1.24 0.28-1.768 0.831-0.541 0.552-0.866 1.219-0.974 2.002-0.11 0.78 0.032 1.45 0.414 2.002 0.374 0.554 0.885 0.831 1.534 0.831s1.246-0.277 1.786-0.831c0.538-0.552 0.861-1.221 0.971-2.002 0.11-0.783-0.032-1.45-0.414-2.002zM39.985 14.979c-0.724 1.033-1.194 2.26-1.426 3.678l-1.765 12.591c0.853-0.132 1.646-0.71 2.381-1.735 0.734-1.030 1.213-2.26 1.442-3.678l1.768-12.572c-0.866 0.118-1.665 0.691-2.4 1.716zM56.167 20.206c-0.616 0.159-1.127 0.473-1.534 0.942-0.506 0.624-0.7 1.334-0.578 2.128 0.121 0.804 0.535 1.498 1.246 2.074l3.785 3.102h-1.714c-1.022 0-1.977 0.234-2.865 0.705-0.928 0.468-1.62 1.106-2.074 1.91l0.866 0.091c0.998 0.070 2.542 0.105 4.635 0.105h0.054c0.963 0 1.665-0.062 2.112-0.196 0.565-0.18 1.081-0.533 1.55-1.065 0.53-0.673 0.716-1.377 0.557-2.109-0.143-0.724-0.587-1.369-1.332-1.948l-3.823-3.158h1.498c0.998 0 1.94-0.258 2.83-0.775 0.877-0.506 1.552-1.176 2.020-1.999h-5.176c-0.917 0-1.603 0.062-2.058 0.194zM66.008 20.069c0 0.118-0.022 0.226-0.067 0.32-0.046 0.099-0.105 0.18-0.175 0.248-0.070 0.070-0.153 0.127-0.245 0.167-0.089 0.040-0.183 0.059-0.28 0.059-0.113 0-0.21-0.019-0.293-0.054-0.086-0.038-0.159-0.083-0.215-0.145s-0.1-0.129-0.126-0.202c-0.035-0.078-0.051-0.159-0.051-0.237 0-0.124 0.024-0.234 0.067-0.331 0.046-0.099 0.105-0.183 0.175-0.256 0.070-0.065 0.153-0.118 0.242-0.156 0.102-0.032 0.202-0.054 0.296-0.054 0.105 0 0.199 0.016 0.282 0.048 0.083 0.035 0.156 0.078 0.215 0.137 0.051 0.056 0.091 0.132 0.126 0.215 0.032 0.070 0.048 0.151 0.048 0.239zM65.844 20.091c0-0.078-0.016-0.148-0.043-0.204-0.022-0.065-0.054-0.121-0.1-0.167-0.038-0.054-0.089-0.091-0.153-0.118-0.065-0.019-0.143-0.030-0.226-0.030s-0.159 0.019-0.229 0.051c-0.073 0.027-0.14 0.067-0.196 0.127-0.051 0.056-0.094 0.127-0.126 0.204-0.027 0.078-0.040 0.159-0.040 0.245 0 0.083 0.011 0.156 0.032 0.213 0.027 0.065 0.059 0.121 0.105 0.167 0.046 0.043 0.1 0.078 0.167 0.105 0.059 0.021 0.129 0.032 0.213 0.032 0.078 0 0.159-0.016 0.237-0.051 0.067-0.035 0.132-0.075 0.183-0.129 0.054-0.056 0.094-0.127 0.129-0.204 0.030-0.067 0.048-0.148 0.048-0.239z" fill="#000000" />
</svg>
