<?xml version="1.0" encoding="utf-8"?>
<!-- Generated by IcoMoon.io -->
<!DOCTYPE svg PUBLIC "-//W3C//DTD SVG 1.1//EN" "http://www.w3.org/Graphics/SVG/1.1/DTD/svg11.dtd">
<svg version="1.1" xmlns="http://www.w3.org/2000/svg" xmlns:xlink="http://www.w3.org/1999/xlink" width="32" height="32" viewBox="0 0 32 32">
<g>
</g>
	<path d="M30.189 29.442c-1.018 0-2.421-0.255-3.525-0.948-1.104 0.693-2.507 0.948-3.524 0.948s-2.42-0.255-3.525-0.948c-1.104 0.693-2.507 0.948-3.524 0.948s-2.42-0.255-3.525-0.948c-1.104 0.693-2.507 0.948-3.524 0.948-1.017 0-2.42-0.255-3.524-0.948-1.104 0.693-2.507 0.948-3.525 0.948-0.416 0-0.82-0.032-1.271-0.101-0.347-0.053-0.586-0.378-0.533-0.725 0.053-0.348 0.382-0.584 0.725-0.533 0.385 0.059 0.728 0.087 1.078 0.087 0.887 0 2.24-0.249 3.131-0.952 0.231-0.183 0.557-0.183 0.788 0 0.891 0.702 2.243 0.952 3.13 0.952 0.887 0 2.239-0.249 3.13-0.952 0.231-0.183 0.557-0.183 0.788 0 0.892 0.702 2.244 0.952 3.131 0.952s2.239-0.249 3.13-0.952c0.231-0.183 0.557-0.183 0.788 0 0.892 0.702 2.244 0.952 3.131 0.952s2.239-0.249 3.13-0.952c0.231-0.183 0.557-0.183 0.788 0 0.891 0.702 2.244 0.952 3.131 0.952 0.357 0 0.672-0.050 0.963-0.152 0.332-0.119 0.695 0.057 0.812 0.389s-0.058 0.695-0.389 0.812c-0.43 0.151-0.883 0.224-1.386 0.224zM30.189 31.988c-1.018 0-2.421-0.255-3.525-0.948-1.104 0.693-2.507 0.948-3.524 0.948s-2.42-0.255-3.525-0.948c-1.104 0.693-2.507 0.948-3.524 0.948s-2.42-0.255-3.525-0.948c-1.104 0.693-2.507 0.948-3.524 0.948-1.017 0-2.42-0.255-3.524-0.948-1.104 0.693-2.507 0.948-3.525 0.948-0.416 0-0.82-0.032-1.271-0.101-0.347-0.053-0.586-0.378-0.533-0.725 0.053-0.348 0.382-0.584 0.725-0.533 0.385 0.059 0.728 0.086 1.078 0.086 0.887 0 2.24-0.249 3.131-0.951 0.231-0.183 0.557-0.183 0.788 0 0.891 0.702 2.243 0.951 3.13 0.951 0.887 0 2.239-0.249 3.13-0.951 0.231-0.183 0.557-0.183 0.788 0 0.892 0.702 2.244 0.951 3.131 0.951s2.239-0.249 3.13-0.951c0.231-0.183 0.557-0.183 0.788 0 0.892 0.702 2.244 0.951 3.131 0.951s2.239-0.249 3.13-0.951c0.231-0.183 0.557-0.183 0.788 0 0.891 0.702 2.244 0.951 3.131 0.951 0.357 0 0.672-0.050 0.963-0.152 0.332-0.118 0.695 0.058 0.812 0.389 0.117 0.332-0.058 0.695-0.389 0.812-0.43 0.151-0.883 0.224-1.386 0.224zM6.385 22.478c-0.345 0-0.628-0.275-0.636-0.622-0.059-2.567 1.716-5.644 2.159-6.267 0.288-0.409 0.962-0.64 6.953-1.442 0.452-0.061 0.847-0.114 1.147-0.156 2.364-0.329 9.31 1.948 10.095 2.209 0.333 0.111 0.514 0.472 0.403 0.805-0.111 0.334-0.471 0.512-0.805 0.403-2.053-0.684-7.765-2.402-9.515-2.157-0.302 0.043-0.7 0.096-1.155 0.157-1.641 0.22-5.409 0.725-6.152 1.015-0.561 0.847-1.902 3.452-1.857 5.404 0.008 0.351-0.27 0.643-0.622 0.651-0.005 0-0.010 0-0.015 0zM7.434 18.042c-0.15 0-0.301-0.053-0.423-0.161-3.925-3.491-4.063-3.649-4.122-3.716-0.116-0.133-0.472-0.539-0.258-1.012 0.14-0.309 0.438-0.466 0.884-0.466h1.836c0.489 0 0.663 0.086 1 0.312l0.103 0.068c0.067 0.044 0.506 0.308 3.159 1.81 0.306 0.173 0.413 0.562 0.24 0.868-0.173 0.305-0.562 0.413-0.868 0.24-2.976-1.686-3.169-1.813-3.232-1.855l-0.111-0.075c-0.063-0.042-0.104-0.074-0.147-0.094 0.006 0.002-0.025-0.002-0.144-0.002h-0.815c0.554 0.501 1.548 1.392 3.322 2.97 0.262 0.234 0.286 0.636 0.053 0.898-0.125 0.142-0.3 0.214-0.476 0.214zM22.335 29.359c-0.234 0-0.458-0.129-0.57-0.352-0.157-0.314-0.030-0.697 0.285-0.854 3.032-1.516 5.605-6.276 7.483-9.752 0.38-0.702 0.738-1.365 1.075-1.96 0.008-0.012 0.014-0.025 0.020-0.037-1.986 0.486-19.157 4.764-22.419 5.667-3.582 0.993-5.537 4.227-5.537 5.611 0 0.074 0 0.249 0.010 0.346 0.204 0.217 0.233 0.554 0.053 0.805-0.204 0.285-0.602 0.352-0.888 0.147-0.448-0.321-0.448-0.84-0.448-1.298 0-1.76 2.222-5.66 6.469-6.838 3.459-0.958 22.41-5.674 22.601-5.721 0.526-0.117 1.014 0.046 1.289 0.419 0.173 0.235 0.398 0.746-0.045 1.527-0.334 0.587-0.687 1.242-1.063 1.936-2.068 3.827-4.642 8.59-8.033 10.285-0.091 0.046-0.189 0.067-0.284 0.067zM19.532 23.724c-0.69 0.144-1.363-0.297-1.506-0.984-0.144-0.689 0.294-1.364 0.984-1.506 0.688-0.144 1.362 0.297 1.507 0.986 0.143 0.686-0.299 1.361-0.986 1.505zM15.714 24.36c-0.69 0.144-1.363-0.297-1.506-0.984-0.144-0.689 0.294-1.364 0.984-1.506 0.688-0.144 1.362 0.297 1.507 0.986 0.144 0.686-0.299 1.36-0.986 1.505zM11.896 24.996c-0.69 0.144-1.363-0.297-1.506-0.984-0.144-0.689 0.294-1.363 0.984-1.506 0.688-0.144 1.362 0.297 1.507 0.986 0.143 0.686-0.299 1.36-0.986 1.505z" fill="#000000" />
</svg>
