<?xml version="1.0" encoding="utf-8"?>
<!-- Generated by IcoMoon.io -->
<!DOCTYPE svg PUBLIC "-//W3C//DTD SVG 1.1//EN" "http://www.w3.org/Graphics/SVG/1.1/DTD/svg11.dtd">
<svg version="1.1" xmlns="http://www.w3.org/2000/svg" xmlns:xlink="http://www.w3.org/1999/xlink" width="32" height="32" viewBox="0 0 32 32">
<g>
</g>
	<path d="M18.695 2.756c0 1.534-1.243 2.777-2.777 2.777-1.534 0-2.777-1.243-2.777-2.777 0-1.534 1.243-2.777 2.777-2.777 1.534 0 2.777 1.243 2.777 2.777zM22.088 10.655c-1.077-2.817-3.153-4.306-6.006-4.306-0.028 0-0.055 0.003-0.082 0.004-0.027-0.002-0.054-0.004-0.082-0.004-2.852 0-4.929 1.489-6.006 4.306-0.768 2.010-0.857 4.257-0.857 5.772 0 0.774 0.628 1.402 1.402 1.402 0.774 0 1.402-0.628 1.402-1.402 0-2.206 0.281-3.743 0.701-4.814v18.81c0 0.871 0.706 1.577 1.577 1.577 0.871 0 1.577-0.706 1.577-1.577v-10.491h0.57v10.491c0 0.871 0.706 1.577 1.577 1.577 0.871 0 1.578-0.706 1.578-1.577v-18.81c0.42 1.071 0.701 2.607 0.701 4.814 0 0.774 0.628 1.402 1.402 1.402 0.774 0 1.402-0.628 1.402-1.402 0-1.515-0.089-3.761-0.857-5.772z" fill="#000000" />
</svg>
