<?xml version="1.0" encoding="utf-8"?>
<!-- Generated by IcoMoon.io -->
<!DOCTYPE svg PUBLIC "-//W3C//DTD SVG 1.1//EN" "http://www.w3.org/Graphics/SVG/1.1/DTD/svg11.dtd">
<svg version="1.1" xmlns="http://www.w3.org/2000/svg" xmlns:xlink="http://www.w3.org/1999/xlink" width="32" height="32" viewBox="0 0 32 32">
<g>
</g>
	<path d="M30.179 29.403c-1.023 0-2.435-0.256-3.545-0.953-1.11 0.697-2.521 0.953-3.544 0.953s-2.434-0.256-3.545-0.953c-1.11 0.697-2.521 0.953-3.544 0.953-1.023 0-2.434-0.256-3.545-0.953-1.11 0.697-2.521 0.953-3.544 0.953-1.023 0-2.434-0.256-3.544-0.953-1.11 0.697-2.522 0.953-3.545 0.953-0.419 0-0.825-0.033-1.278-0.102-0.349-0.053-0.589-0.38-0.536-0.729 0.053-0.35 0.384-0.587 0.729-0.536 0.387 0.059 0.732 0.087 1.084 0.087 0.892 0 2.252-0.251 3.149-0.957 0.233-0.184 0.56-0.184 0.792 0 0.896 0.706 2.256 0.957 3.148 0.957 0.892 0 2.252-0.251 3.148-0.957 0.232-0.184 0.56-0.184 0.792 0 0.897 0.706 2.257 0.957 3.149 0.957 0.892 0 2.252-0.251 3.148-0.957 0.232-0.184 0.56-0.184 0.792 0 0.897 0.706 2.257 0.957 3.149 0.957 0.892 0 2.252-0.251 3.148-0.957 0.233-0.184 0.56-0.184 0.793 0 0.896 0.706 2.256 0.957 3.149 0.957 0.359 0 0.676-0.050 0.969-0.153 0.334-0.119 0.699 0.058 0.816 0.391s-0.058 0.699-0.391 0.816c-0.432 0.152-0.888 0.226-1.394 0.226zM30.179 31.963c-1.023 0-2.435-0.256-3.545-0.953-1.11 0.697-2.521 0.953-3.544 0.953s-2.434-0.256-3.545-0.953c-1.11 0.697-2.521 0.953-3.544 0.953-1.023 0-2.434-0.256-3.545-0.953-1.11 0.697-2.521 0.953-3.544 0.953-1.023 0-2.434-0.256-3.544-0.953-1.11 0.697-2.522 0.953-3.545 0.953-0.419 0-0.825-0.033-1.278-0.102-0.349-0.053-0.589-0.38-0.536-0.729 0.053-0.35 0.384-0.587 0.729-0.536 0.387 0.059 0.732 0.087 1.084 0.087 0.892 0 2.252-0.251 3.149-0.957 0.233-0.184 0.56-0.184 0.792 0 0.896 0.706 2.256 0.957 3.148 0.957 0.892 0 2.252-0.251 3.148-0.957 0.232-0.184 0.56-0.184 0.792 0 0.897 0.706 2.257 0.957 3.149 0.957 0.892 0 2.252-0.251 3.148-0.957 0.232-0.184 0.56-0.184 0.792 0 0.897 0.706 2.257 0.957 3.149 0.957 0.892 0 2.252-0.251 3.148-0.957 0.233-0.184 0.56-0.184 0.793 0 0.896 0.706 2.256 0.957 3.149 0.957 0.359 0 0.676-0.050 0.969-0.153 0.334-0.119 0.699 0.058 0.816 0.391 0.117 0.334-0.058 0.699-0.391 0.816-0.432 0.152-0.888 0.226-1.394 0.226zM10.897 28.955c-0.063 0-0.127-0.009-0.19-0.029-3.045-0.934-8.154-2.941-8.154-5.886 0-1.027 0.901-1.927 1.928-1.927h24.32c0.246 0 0.993 0 1.252 0.595 0.278 0.639-0.283 1.242-0.779 1.774-2.882 3.095-6.603 4.638-8.564 5.282-0.341 0.113-0.706-0.073-0.817-0.414-0.112-0.339 0.073-0.706 0.413-0.817 1.843-0.605 5.337-2.051 8.021-4.934 0.038-0.041 0.104-0.111 0.175-0.191h-24.021c-0.301 0-0.632 0.331-0.632 0.633 0 1.475 2.841 3.299 7.238 4.647 0.342 0.105 0.534 0.468 0.429 0.809-0.086 0.279-0.342 0.458-0.619 0.458zM26.88 22.407c-0.052 0-0.105-0.006-0.157-0.019l-10.24-2.56c-0.208-0.052-0.377-0.203-0.451-0.404-0.074-0.201-0.044-0.425 0.081-0.6 0.029-0.041 3.006-4.436 1.171-14.224-0.051-0.271 0.076-0.545 0.316-0.682 0.239-0.138 0.54-0.107 0.748 0.075 10.388 9.090 9.228 17.512 9.174 17.866-0.028 0.18-0.13 0.34-0.282 0.441-0.107 0.071-0.232 0.108-0.358 0.108zM17.621 18.777l8.656 2.164c0.012-2.034-0.594-8.096-7.416-14.715 0.96 6.933-0.458 10.956-1.24 12.551zM16 22.313c-0.067 0-0.133-0.011-0.198-0.031l-11.52-3.752c-0.24-0.078-0.411-0.29-0.438-0.541-0.027-0.251 0.096-0.494 0.314-0.621 0.077-0.045 7.776-4.633 11.235-15.009 0.099-0.297 0.399-0.48 0.71-0.429 0.31 0.051 0.538 0.318 0.538 0.632v19.112c0 0.205-0.098 0.398-0.264 0.518-0.111 0.080-0.243 0.122-0.376 0.122zM5.931 17.72l9.428 3.071v-14.854c-2.983 6.548-7.373 10.292-9.428 11.783z" fill="#000000" />
</svg>
