<?xml version="1.0" encoding="iso-8859-1"?>
<!-- Generator: Adobe Illustrator 16.0.0, SVG Export Plug-In . SVG Version: 6.00 Build 0)  -->
<!DOCTYPE svg PUBLIC "-//W3C//DTD SVG 1.1//EN" "http://www.w3.org/Graphics/SVG/1.1/DTD/svg11.dtd">
<svg version="1.1" id="Layer_1" xmlns="http://www.w3.org/2000/svg" xmlns:xlink="http://www.w3.org/1999/xlink" x="0px" y="0px"
	 width="26px" height="20.833px" viewBox="0 0 26 20.833" style="enable-background:new 0 0 26 20.833;" xml:space="preserve">
<path d="M24.667,3.143c-0.884,0.392-1.832,0.656-2.829,0.775c1.018-0.61,1.799-1.575,2.166-2.724
	c-0.952,0.563-2.007,0.974-3.128,1.194c-0.897-0.958-2.177-1.555-3.593-1.555c-2.72,0-4.925,2.205-4.925,4.924
	c0,0.385,0.044,0.761,0.129,1.122C8.395,6.673,4.766,4.713,2.337,1.734C1.913,2.463,1.671,3.308,1.671,4.21
	c0,1.708,0.867,3.214,2.189,4.098C3.053,8.283,2.295,8.062,1.631,7.692c0,0.021,0,0.041,0,0.062c0,2.387,1.696,4.374,3.948,4.829
	c-0.412,0.113-0.848,0.173-1.296,0.173c-0.318,0-0.627-0.031-0.928-0.089c0.628,1.954,2.445,3.381,4.6,3.42
	c-1.684,1.32-3.807,2.105-6.115,2.105c-0.398,0-0.789-0.021-1.174-0.068c2.178,1.398,4.768,2.213,7.548,2.213
	c9.057,0,14.011-7.504,14.011-14.008c0-0.214-0.006-0.428-0.015-0.638C23.172,4.998,24.007,4.13,24.667,3.143"/>
</svg>
